<svg width="57" height="38" viewBox="0 0 57 38" fill="none" xmlns="http://www.w3.org/2000/svg">
<path fill-rule="evenodd" clip-rule="evenodd" d="M0 18.9996C0 18.4692 0.210714 17.9605 0.585786 17.5854C0.960859 17.2103 1.46957 16.9996 2 16.9996H49.172L36.584 4.4156C36.2085 4.04005 35.9975 3.5307 35.9975 2.9996C35.9975 2.46849 36.2085 1.95914 36.584 1.5836C36.9595 1.20805 37.4689 0.99707 38 0.99707C38.5311 0.99707 39.0405 1.20805 39.416 1.5836L55.416 17.5836C55.6023 17.7694 55.75 17.9901 55.8508 18.2331C55.9517 18.476 56.0036 18.7365 56.0036 18.9996C56.0036 19.2627 55.9517 19.5231 55.8508 19.7661C55.75 20.0091 55.6023 20.2298 55.416 20.4156L39.416 36.4156C39.0405 36.7911 38.5311 37.0021 38 37.0021C37.4689 37.0021 36.9595 36.7911 36.584 36.4156C36.2085 36.0401 35.9975 35.5307 35.9975 34.9996C35.9975 34.4685 36.2085 33.9591 36.584 33.5836L49.172 20.9996H2C1.46957 20.9996 0.960859 20.7889 0.585786 20.4138C0.210714 20.0387 0 19.53 0 18.9996Z" fill="#FFFEFA"/>
</svg>
