<svg width="57" height="37" viewBox="0 0 57 37" fill="none" xmlns="http://www.w3.org/2000/svg">
<path fill-rule="evenodd" clip-rule="evenodd" d="M0 18.3789C0 17.844 0.210714 17.3311 0.585786 16.9529C0.960859 16.5748 1.46957 16.3623 2 16.3623H49.172L36.584 3.67393C36.2085 3.29527 35.9975 2.78169 35.9975 2.24618C35.9975 1.71068 36.2085 1.1971 36.584 0.818441C36.9595 0.43978 37.4689 0.227051 38 0.227051C38.5311 0.227051 39.0405 0.43978 39.416 0.818441L55.416 16.9511C55.6023 17.1385 55.75 17.361 55.8508 17.606C55.9517 17.851 56.0036 18.1136 56.0036 18.3789C56.0036 18.6441 55.9517 18.9068 55.8508 19.1518C55.75 19.3968 55.6023 19.6193 55.416 19.8066L39.416 35.9393C39.0405 36.318 38.5311 36.5307 38 36.5307C37.4689 36.5307 36.9595 36.318 36.584 35.9393C36.2085 35.5606 35.9975 35.0471 35.9975 34.5116C35.9975 33.9761 36.2085 33.4625 36.584 33.0838L49.172 20.3955H2C1.46957 20.3955 0.960859 20.183 0.585786 19.8048C0.210714 19.4266 0 18.9137 0 18.3789Z" fill="#0D0A02"/>
</svg>
