<svg width="1120" height="197" viewBox="0 0 1120 197" fill="none" xmlns="http://www.w3.org/2000/svg">
<path d="M485.861 161.636H490.773V174.771C490.773 176.289 490.411 177.612 489.689 178.739C488.966 179.859 487.959 180.727 486.666 181.344C485.374 181.954 483.872 182.259 482.162 182.259C480.432 182.259 478.92 181.954 477.628 181.344C476.335 180.727 475.331 179.859 474.615 178.739C473.899 177.612 473.541 176.289 473.541 174.771V161.636H478.463V174.344C478.463 175.046 478.616 175.673 478.92 176.223C479.232 176.773 479.666 177.204 480.223 177.516C480.78 177.827 481.426 177.983 482.162 177.983C482.898 177.983 483.541 177.827 484.091 177.516C484.648 177.204 485.082 176.773 485.393 176.223C485.705 175.673 485.861 175.046 485.861 174.344V161.636ZM498.779 161.636V182H493.858V161.636H498.779ZM515.412 182H507.885V161.636H515.402C517.477 161.636 519.263 162.044 520.761 162.859C522.266 163.668 523.426 164.835 524.241 166.359C525.057 167.877 525.464 169.694 525.464 171.808C525.464 173.929 525.057 175.752 524.241 177.277C523.433 178.802 522.276 179.972 520.771 180.787C519.267 181.596 517.48 182 515.412 182ZM512.807 177.804H515.223C516.363 177.804 517.328 177.612 518.116 177.227C518.912 176.836 519.512 176.203 519.916 175.328C520.327 174.446 520.533 173.273 520.533 171.808C520.533 170.343 520.327 169.177 519.916 168.308C519.505 167.433 518.899 166.804 518.097 166.419C517.301 166.028 516.32 165.832 515.153 165.832H512.807V177.804ZM528.338 182V161.636H542.537V165.634H533.26V169.81H541.811V173.817H533.26V178.003H542.537V182H528.338ZM556.626 167.741C556.56 167.012 556.265 166.446 555.741 166.041C555.224 165.63 554.485 165.425 553.524 165.425C552.888 165.425 552.357 165.508 551.933 165.673C551.509 165.839 551.191 166.068 550.979 166.359C550.767 166.644 550.657 166.973 550.651 167.344C550.637 167.649 550.697 167.917 550.83 168.149C550.969 168.381 551.168 168.587 551.426 168.766C551.691 168.938 552.009 169.09 552.381 169.223C552.752 169.356 553.17 169.472 553.634 169.571L555.384 169.969C556.391 170.188 557.279 170.479 558.048 170.844C558.824 171.208 559.473 171.643 559.997 172.146C560.527 172.65 560.929 173.23 561.2 173.886C561.472 174.543 561.611 175.278 561.618 176.094C561.611 177.38 561.286 178.483 560.643 179.405C560 180.326 559.076 181.032 557.869 181.523C556.67 182.013 555.221 182.259 553.524 182.259C551.821 182.259 550.336 182.003 549.07 181.493C547.804 180.982 546.819 180.207 546.116 179.166C545.414 178.125 545.053 176.81 545.033 175.219H549.746C549.786 175.875 549.961 176.422 550.273 176.859C550.584 177.297 551.012 177.628 551.555 177.854C552.106 178.079 552.742 178.192 553.464 178.192C554.127 178.192 554.691 178.102 555.155 177.923C555.625 177.744 555.987 177.496 556.239 177.178C556.491 176.859 556.62 176.495 556.626 176.084C556.62 175.699 556.5 175.371 556.268 175.099C556.036 174.821 555.679 174.582 555.195 174.384C554.717 174.178 554.107 173.989 553.365 173.817L551.237 173.32C549.474 172.915 548.085 172.262 547.071 171.361C546.057 170.453 545.553 169.226 545.56 167.682C545.553 166.422 545.891 165.319 546.574 164.371C547.257 163.423 548.201 162.684 549.408 162.153C550.614 161.623 551.99 161.358 553.534 161.358C555.112 161.358 556.481 161.626 557.641 162.163C558.807 162.694 559.712 163.439 560.355 164.401C560.998 165.362 561.326 166.475 561.339 167.741H556.626ZM569.026 161.636V182H564.104V161.636H569.026ZM585.479 168.288C585.366 167.871 585.201 167.503 584.982 167.185C584.763 166.86 584.495 166.585 584.176 166.359C583.858 166.134 583.494 165.965 583.083 165.852C582.672 165.733 582.221 165.673 581.73 165.673C580.743 165.673 579.888 165.912 579.165 166.389C578.449 166.866 577.896 167.562 577.505 168.477C577.114 169.385 576.918 170.489 576.918 171.788C576.918 173.094 577.107 174.208 577.485 175.129C577.863 176.051 578.409 176.753 579.125 177.237C579.841 177.721 580.71 177.963 581.73 177.963C582.632 177.963 583.394 177.817 584.017 177.526C584.647 177.227 585.124 176.806 585.449 176.263C585.774 175.719 585.936 175.08 585.936 174.344L586.851 174.453H581.9V170.864H590.679V173.558C590.679 175.381 590.292 176.942 589.516 178.241C588.747 179.541 587.686 180.538 586.334 181.234C584.989 181.93 583.441 182.278 581.691 182.278C579.748 182.278 578.042 181.857 576.57 181.016C575.098 180.174 573.952 178.974 573.13 177.416C572.308 175.852 571.897 173.996 571.897 171.848C571.897 170.178 572.145 168.696 572.642 167.403C573.14 166.104 573.832 165.004 574.721 164.102C575.615 163.201 576.65 162.518 577.823 162.054C579.003 161.59 580.272 161.358 581.631 161.358C582.811 161.358 583.908 161.527 584.922 161.865C585.943 162.203 586.845 162.68 587.627 163.297C588.416 163.913 589.055 164.646 589.546 165.494C590.036 166.343 590.341 167.274 590.461 168.288H585.479ZM610.911 161.636V182H606.735L598.631 170.247H598.502V182H593.58V161.636H597.816L605.83 173.369H605.999V161.636H610.911ZM614.006 182V161.636H628.205V165.634H618.928V169.81H627.479V173.817H618.928V178.003H628.205V182H614.006ZM631.287 182V161.636H639.699C641.224 161.636 642.54 161.911 643.647 162.462C644.76 163.005 645.619 163.787 646.222 164.808C646.825 165.822 647.127 167.026 647.127 168.418C647.127 169.83 646.819 171.029 646.202 172.017C645.586 172.998 644.711 173.747 643.577 174.264C642.444 174.775 641.101 175.03 639.55 175.03H634.23V171.152H638.635C639.378 171.152 639.998 171.056 640.495 170.864C640.998 170.665 641.38 170.366 641.638 169.969C641.897 169.564 642.026 169.047 642.026 168.418C642.026 167.788 641.897 167.268 641.638 166.857C641.38 166.439 640.998 166.127 640.495 165.922C639.991 165.71 639.371 165.604 638.635 165.604H636.209V182H631.287ZM642.752 172.693L647.823 182H642.453L637.482 172.693H642.752Z" fill="#1F2021"/>
<rect width="1120" height="8" fill="#1F2021"/>
<path d="M0 129V40H36.7648C43.4282 40 49.179 41.2023 54.0173 43.6069C58.8845 45.9826 62.6363 49.4012 65.2727 53.8628C67.9091 58.2955 69.2273 63.5538 69.2273 69.6378C69.2273 75.8087 67.8801 81.0525 65.1858 85.3693C62.4914 89.6571 58.6672 92.9308 53.7131 95.1906C48.759 97.4214 42.8922 98.5368 36.1129 98.5368H12.8633V81.5885H32.1148C35.3597 81.5885 38.0685 81.1684 40.2413 80.3283C42.4432 79.4591 44.109 78.1554 45.2389 76.4171C46.3688 74.6499 46.9337 72.3901 46.9337 69.6378C46.9337 66.8855 46.3688 64.6112 45.2389 62.815C44.109 60.9898 42.4432 59.6282 40.2413 58.73C38.0395 57.803 35.3307 57.3394 32.1148 57.3394H21.5113V129H0ZM50.1061 88.3244L72.2693 129H48.8024L27.0738 88.3244H50.1061Z" fill="#1F2021"/>
<path d="M102.537 40V129H81.0259V40H102.537Z" fill="#1F2021"/>
<path d="M136.249 40L156.152 105.186H156.891L176.795 40H200.87L170.841 129H142.203L112.174 40H136.249Z" fill="#1F2021"/>
<path d="M216.438 129H193.319L223.348 40H251.986L282.015 129H258.896L237.993 62.4239H237.298L216.438 129ZM213.353 93.9738H261.677V110.314H213.353V93.9738Z" fill="#1F2021"/>
<path d="M291.598 129V40H313.109V111.531H350.134V129H291.598Z" fill="#1F2021"/>
<path d="M394.167 129H361.27V40H394.124C403.192 40 411 41.7817 417.547 45.3452C424.124 48.8797 429.194 53.9787 432.757 60.6422C436.321 67.2766 438.103 75.2148 438.103 84.4567C438.103 93.7276 436.321 101.695 432.757 108.358C429.223 115.022 424.167 120.135 417.591 123.699C411.014 127.233 403.207 129 394.167 129ZM382.782 110.661H393.342C398.325 110.661 402.54 109.821 405.988 108.141C409.464 106.432 412.086 103.665 413.854 99.8405C415.65 95.9873 416.548 90.8594 416.548 84.4567C416.548 78.054 415.65 72.955 413.854 69.1598C412.057 65.3355 409.406 62.5832 405.901 60.9029C402.424 59.1936 398.137 58.3389 393.038 58.3389H382.782V110.661Z" fill="#1F2021"/>
<path d="M472.173 40V129H450.662V40H472.173Z" fill="#1F2021"/>
<path d="M511.969 129V40H548.734C555.397 40 561.148 41.3037 565.986 43.9111C570.853 46.4896 574.605 50.0965 577.242 54.732C579.878 59.3384 581.196 64.6982 581.196 70.8111C581.196 76.9531 579.849 82.3273 577.155 86.9338C574.489 91.5112 570.68 95.0602 565.726 97.5808C560.771 100.101 554.89 101.362 548.082 101.362H525.397V84.4132H544.084C547.329 84.4132 550.037 83.8483 552.21 82.7184C554.412 81.5885 556.078 80.0096 557.208 77.9816C558.338 75.9246 558.903 73.5345 558.903 70.8111C558.903 68.0588 558.338 65.6832 557.208 63.6842C556.078 61.6562 554.412 60.0917 552.21 58.9908C550.008 57.8899 547.3 57.3394 544.084 57.3394H533.48V129H511.969Z" fill="#1F2021"/>
<path d="M591.8 129V40H628.565C635.228 40 640.979 41.2023 645.817 43.6069C650.684 45.9826 654.436 49.4012 657.072 53.8628C659.709 58.2955 661.027 63.5538 661.027 69.6378C661.027 75.8087 659.68 81.0525 656.986 85.3693C654.291 89.6571 650.467 92.9308 645.513 95.1906C640.559 97.4214 634.692 98.5368 627.913 98.5368H604.663V81.5885H623.915C627.159 81.5885 629.868 81.1684 632.041 80.3283C634.243 79.4591 635.909 78.1554 637.039 76.4171C638.169 74.6499 638.734 72.3901 638.734 69.6378C638.734 66.8855 638.169 64.6112 637.039 62.815C635.909 60.9898 634.243 59.6282 632.041 58.73C629.839 57.803 627.13 57.3394 623.915 57.3394H613.311V129H591.8ZM641.906 88.3244L664.069 129H640.602L618.874 88.3244H641.906Z" fill="#1F2021"/>
<path d="M692.077 129H668.958L698.987 40H727.625L757.654 129H734.535L713.632 62.4239H712.937L692.077 129ZM688.992 93.9738H737.316V110.314H688.992V93.9738Z" fill="#1F2021"/>
<path d="M753.211 57.4698V40H828.435V57.4698H801.448V129H780.241V57.4698H753.211Z" fill="#1F2021"/>
<path d="M847.078 129H823.959L853.988 40H882.626L912.655 129H889.536L868.633 62.4239H867.938L847.078 129ZM843.993 93.9738H892.317V110.314H843.993V93.9738Z" fill="#1F2021"/>
<path d="M922.237 40H948.877L971.474 95.1037H972.517L995.115 40H1021.75V129H1000.81V74.3312H1000.07L978.688 128.435H965.303L943.922 74.027H943.184V129H922.237V40Z" fill="#1F2021"/>
<path d="M1054.42 129H1031.3L1061.33 40H1089.97L1120 129H1096.88L1075.98 62.4239H1075.28L1054.42 129ZM1051.34 93.9738H1099.66V110.314H1051.34V93.9738Z" fill="#1F2021"/>
<path fill-rule="evenodd" clip-rule="evenodd" d="M448 168H0V176H448V168ZM673 176H1120V168H673V176Z" fill="#1F2021"/>
</svg>
